<?xml version="1.0" standalone="no"?>
<!DOCTYPE svg PUBLIC "-//W3C//DTD SVG 20010904//EN"
 "http://www.w3.org/TR/2001/REC-SVG-20010904/DTD/svg10.dtd">
<svg version="1.0" xmlns="http://www.w3.org/2000/svg"
 width="1500.000000pt" height="1500.000000pt" viewBox="0 0 1500.000000 1500.000000"
 preserveAspectRatio="xMidYMid meet">
<metadata>
Created by potrace 1.11, written by Peter Selinger 2001-2013
</metadata>
<g transform="translate(0.000000,1500.000000) scale(0.100000,-0.100000)"
fill="#000000" stroke="none">
<path d="M9055 10850 c-22 -4 -72 -20 -110 -36 -69 -27 -76 -33 -597 -552
l-527 -526 -3 -770 -3 -771 -28 -80 c-31 -93 -49 -132 -86 -190 -26 -41 -77
-105 -83 -105 -2 0 -2 139 0 310 2 187 0 310 -6 310 -5 0 -12 64 -16 143 -9
184 -10 190 -19 205 -5 6 -5 17 -1 24 5 7 3 8 -5 4 -8 -5 -11 -3 -10 5 2 8 0
23 -4 34 -3 11 -14 65 -22 120 -21 131 -21 132 -34 188 -25 109 -102 201 -199
237 -52 20 -81 20 -1706 20 -1488 0 -1658 -2 -1706 -16 -108 -32 -183 -107
-214 -215 -15 -50 -16 -219 -14 -1715 l3 -1659 24 -45 c42 -80 79 -118 149
-152 l66 -33 278 -3 278 -3 0 -493 c0 -309 4 -514 11 -551 11 -59 47 -151 71
-181 90 -111 170 -168 277 -196 60 -15 145 -17 894 -17 925 -1 912 -2 1026 67
44 27 203 179 570 546 l509 509 517 -516 c561 -560 573 -571 710 -597 43 -8
302 -10 910 -8 947 3 885 -1 1001 73 108 69 191 191 213 309 14 78 15 1670 1
1747 -5 30 -27 87 -47 127 -35 67 -81 116 -553 588 l-514 514 520 523 c383
385 527 535 547 573 57 109 57 106 57 995 0 543 -4 835 -11 875 -17 96 -63
179 -140 255 -56 55 -83 73 -151 101 l-83 33 -850 2 c-467 0 -868 -3 -890 -7z
m-2845 -2480 l0 -170 -450 0 -450 0 0 -260 0 -260 425 0 425 0 0 -170 0 -170
-425 0 -425 0 0 -270 0 -270 475 0 475 0 0 -170 0 -170 -680 0 -680 0 0 1040
0 1040 655 0 655 0 0 -170z"/>
</g>
</svg>
